<?xml version="1.0" standalone="no"?>
<!DOCTYPE svg PUBLIC "-//W3C//DTD SVG 1.1//EN" "http://www.w3.org/Graphics/SVG/1.1/DTD/svg11.dtd" >
<svg xmlns="http://www.w3.org/2000/svg">
<metadata>Generated by IcoMoon</metadata>
<defs>
<font id="icomoon" horiz-adv-x="1024">
<font-face units-per-em="1024" ascent="960" descent="-64" />
<missing-glyph horiz-adv-x="1024" />
<glyph unicode="&#x20;" horiz-adv-x="512" d="" />
<glyph unicode="&#xe600;" glyph-name="dashboard" horiz-adv-x="832" d="M416 495.5c-61.562 0-111.5-49.938-111.5-111.5s49.938-111.5 111.5-111.5 111.5 49.938 111.5 111.5c0 8.5-1.125 16.75-3 24.688 81.625 94.937 208 242.968 275.5 327.312 23.125 28.875-2.312 56.188-32 32-85.188-69.375-232.312-194.688-326.906-275.594-8.063 1.875-16.469 3.094-25.094 3.094zM447.875 704.125c0 17.656-14.344 32-32 32s-32-14.344-32-32 14.344-32 32-32 32 14.344 32 32zM639.875 448.125c0-17.656 14.375-32 32-32s32 14.344 32 32-14.375 32-32 32-32-14.344-32-32zM287.875 704.125c-17.656 0-32-14.344-32-32s14.344-32 32-32 32 14.344 32 32-14.344 32-32 32zM223.875 576.125c0 17.656-14.344 32-32 32s-32-14.344-32-32 14.344-32 32-32 32 14.344 32 32zM127.875 448.125c0-17.656 14.344-32 32-32s32 14.344 32 32-14.344 32-32 32-32-14.344-32-32zM575.875 672.125c0 17.656-14.375 32-32 32s-32-14.344-32-32 14.375-32 32-32 32 14.344 32 32zM792.875 623.312l-68.75-89.938c7.5-27.186 11.875-55.749 11.875-85.374 0-176.75-143.312-320-320-320s-320 143.25-320 320c0 176.688 143.312 320 320 320 65.875 0 127-19.969 177.875-54.094l79.25 60.625c-70.75 55.875-159.875 89.469-257.125 89.469-229.75 0-416-186.25-416-416s186.25-416 416-416 416 186.25 416 416c0 62.719-14.25 122-39.125 175.312z" />
<glyph unicode="&#xe601;" glyph-name="clinic2" d="M833.185 786.817h-68.34v96.516c0 25.433-20.702 46.134-46.124 46.134h-147.361v10.030c0 11.323-9.179 20.502-20.502 20.502h-192.192c-11.323 0-20.502-9.179-20.502-20.502v-10.030h-147.361c-25.433 0-46.124-20.691-46.124-46.134v-758.548c0-25.433 20.691-46.124 46.124-46.124h68.35v-96.527c0-25.443 20.691-46.134 46.124-46.134h527.907c25.443 0 46.134 20.691 46.134 46.134v758.548c0 25.433-20.691 46.134-46.134 46.134zM259.154 740.683v-610.777h-63.219v748.297h142.22v-6.13c0-11.323 9.179-20.502 20.502-20.502h192.192c11.323 0 20.502 9.179 20.502 20.502v6.13h142.22v-91.396h-27.767v10.041c0 11.323-9.179 20.502-20.491 20.502h-192.192c-11.323 0-20.502-9.179-20.502-20.502v-10.030h-147.34c-25.433 0-46.124-20.702-46.124-46.134zM828.065-12.745h-517.667v748.308h142.23v-6.13c0-11.323 9.179-20.502 20.502-20.502h192.181c11.334 0 20.512 9.189 20.512 20.502v6.13h142.209v-748.297h0.032zM391.554 332.254h355.345v-71.757h-355.345v71.757zM391.554 185.324h355.345v-71.767h-355.345v71.767zM537.633 409.12h63.198v80.315h80.315v63.209h-80.315v80.294h-63.198v-80.294h-80.294v-63.209h80.294z" />
<glyph unicode="&#xe602;" glyph-name="flame1" d="M563.308 646.568c-67.868 209.698 28.030 313.432 28.030 313.432s-314.824-151.316-408.139-559.144c-39.235 56.443-73.47 87.328-69.571 77.222 42.109-109.061-53.057-157.906-51.794-272.879 1.282-114.955 199.722-246.534 199.722-246.534 0.018 0.054 0.036 0.11 0.054 0.164 7.818-5.786 16.075-11.223 24.717-16.349-7.397 8.788-14.336 17.777-20.762 26.949-21.512 30.703-36.616 63.089-36.965 94.304-0.678 61.589 26.253 104.209 44.983 147.287 16.239 37.312 26.345 74.972 6.811 125.593-3.077 7.964 17.631-9.631 45.751-45.111 54.85 148.771 108.878 277.677 108.878 277.677s1.392-202.504 70.028-332.27c64.425-121.802 60.562-184.362 60.562-184.362 117.189 112.027 156.386 290.053 156.386 290.053 42.602-37.568 67.098-85.315 80.884-133.264 29.037-100.932-30.958-202.376-32.296-212.189-0.568-4.083-1.61-7.89-2.489-11.791-4.101-18.417-11.48-34.877-21.64-49.359 11.002 6.993 21.44 14.701 31.489 22.847 0.018-0.054 0.036-0.11 0.054-0.164 0 0 182.896 131.579 184.159 246.552 1.264 114.955-93.901 163.801-51.794 272.879 3.644 9.446-24.185-16.843-57.724-66.441-33.21 102.432-54.485 185.222-165.467 283.114 0 0 20.523-222.68-97.434-383.918 0.020-0.047 41.451 125.984-26.435 335.703z" />
<glyph unicode="&#xe603;" glyph-name="iconmonstr-calendar-8-icon" d="M571.096 731.572v91.458c0 20.070 16.272 36.34 36.342 36.34s36.34-16.27 36.34-36.34v-91.458c0-20.070-16.27-36.34-36.34-36.34s-36.342 16.27-36.342 36.34zM282.438 695.396c20.068 0 36.34 16.274 36.34 36.344v91.454c0 20.070-16.272 36.344-36.34 36.344-20.072 0-36.342-16.274-36.342-36.344v-91.454c0-20.070 16.27-36.344 36.342-36.344zM839 705.444v-598.664h-656v-70.316h726v668.98h-70zM773 170.166h-658v599.968h87.17v-37.066c0-44.262 36.008-80.27 80.268-80.27 44.258 0 80.266 36.008 80.266 80.27v37.066h164.466v-37.234c0-44.258 36.008-80.266 80.268-80.266 44.258 0 80.266 36.008 80.266 80.266v37.234h85.296v-599.968zM336.664 391.474h-102.9v-102.906h102.9v102.906zM336.664 545.708h-102.9v-102.902h102.9v102.902zM496.138 391.474h-102.9v-102.906h102.9v102.906zM496.138 545.708h-102.9v-102.902h102.9v102.902zM655.612 391.474h-102.898v-102.906h102.898v102.906zM655.616 545.708h-102.902v-102.902h102.902v102.902z" />
<glyph unicode="&#xe604;" glyph-name="iconmonstr-line-chart-4-icon" d="M923.926 83.306h-823.852v434.728l131.132-133.332 175.958 192 255.936-251.336 260.824 155.058v-397.118zM229.674 491.818l175.218 191.196 267.268-262.46 251.766 149.672v106.664l-235.298-134.618-286.128 270.422-171.292-186.664-131.132 128.004v-130.446l129.598-131.77z" />
<glyph unicode="&#xe605;" glyph-name="iconmonstr-power-off-icon" d="M582 860h-140v-368.002h140v368.002zM732.454 735.186c45.242-31.674 83.854-73.222 112.4-122.668 68.658-118.916 68.658-265.428 0-384.346-68.658-118.916-195.542-192.172-332.854-192.172-137.314 0-264.198 73.256-332.854 192.172-68.658 118.918-68.658 265.43 0 384.346 28.544 49.446 67.158 90.994 112.4 122.668l46.888-66.966c-35.62-24.936-66.018-57.648-88.494-96.574-54.052-93.624-54.052-208.974 0-302.598 54.054-93.624 153.952-151.298 262.058-151.298s208.002 57.676 262.056 151.298c54.052 93.624 54.052 208.972 0 302.598-22.474 38.926-52.876 71.638-88.494 96.574l46.894 66.966z" />
<glyph unicode="&#xe606;" glyph-name="iconmonstr-video-5-icon" d="M486.782 626.332l431.496 85.532-0.29 1.454-28.872 145.682-726.8-144.070c-36.176-7.17-62.316-38.9-62.316-75.778 0-32.624 0-484.814 0-484.814 0-64.702 52.636-117.338 117.336-117.338h589.328c64.7 0 117.336 52.636 117.336 117.338v471.994h-437.218zM844 154.338c0-20.588-16.748-37.338-37.336-37.338h-589.328c-20.588 0-37.336 16.75-37.336 37.338v282.132h664v-282.132zM679.056 586.332l-69.862-69.862h-104.852l69.862 69.862h104.852zM790.45 798.664l82.278-55.058-102.792-20.428-82.34 55.1 102.854 20.386zM587.962 758.528l82.398-55.136-102.788-20.426-82.458 55.176 102.848 20.386zM385.25 718.346l82.514-55.216-102.79-20.426-82.574 55.254 102.85 20.388zM367.54 586.332h104.852l-69.862-69.862h-104.852l69.862 69.862zM710.77 516.47l69.862 69.862h104.852l-69.862-69.862h-104.852zM465.846 173.38v217.514l177.386-108.76-177.386-108.754z" />
<glyph unicode="&#xe607;" glyph-name="iconmonstr-webcam-5-icon" d="M733.732 834.456c-100.504 0-190.274-67.652-190.274-160.184 0-32.818 11.718-65.044 32.454-90.046 0.874-29.302-16.206-71.33-31.602-101.946 41.256 7.53 99.906 24.152 126.5 40.596 22.454-5.514 43.998-8.060 64.344-8.060 112.35 0 188.846 77.426 188.846 159.456 0 93.036-90.392 160.184-190.268 160.184zM664.024 645.414c-14.032 0-25.402 11.37-25.402 25.402 0 14.024 11.372 25.396 25.402 25.396 14.034 0 25.4-11.372 25.4-25.396 0-14.034-11.368-25.402-25.4-25.402zM739.758 645.414c-14.028 0-25.398 11.37-25.398 25.402 0 14.024 11.372 25.396 25.398 25.396 14.034 0 25.408-11.372 25.408-25.396 0-14.034-11.374-25.402-25.408-25.402zM814.576 645.414c-14.032 0-25.402 11.37-25.402 25.402 0 14.024 11.372 25.396 25.402 25.396 14.024 0 25.396-11.372 25.396-25.396 0-14.034-11.372-25.402-25.396-25.402zM374.552 528.522c-62.054 0-112.358-50.306-112.358-112.36 0-62.056 50.302-112.36 112.358-112.36s112.36 50.302 112.36 112.36c0 62.052-50.304 112.36-112.36 112.36zM374.552 367.114c-27.042 0-49.048 22-49.048 49.048 0 27.044 22.006 49.046 49.048 49.046 27.046 0 49.048-22.002 49.048-49.046 0.002-27.048-22-49.048-49.048-49.048zM529.56 193.576l108.658-132.032h-526.868l107.732 132.352c-73.012 50.212-119.082 133.806-119.082 226.312 0 151.384 123.164 274.548 274.552 274.548 38.62 0 75.39-8.032 108.758-22.482 0.294-29.312 7.018-58.094 19.44-84.3-35.578 27.248-80.026 43.468-128.198 43.468-116.476 0-211.238-94.762-211.238-211.234 0-112.902 73.264-172.246 153.124-206.996l-71.914-88.352h259.596l-72.434 88.010c96.632 39.246 158.342 113.752 153.892 216.622 19.1 4.49 41.158 10.494 62.196 17.756 9.962-101.45-36.544-197.754-118.214-253.672z" />
<glyph unicode="&#xe608;" glyph-name="medical4" d="M479.398 651.961h-99.254v77.266h-188.45v-77.266h-103.701c-28.308 0-51.452-23.144-51.452-51.452v-613.057c0-28.304 23.148-51.452 51.452-51.452h391.409c28.308 0 51.452 23.148 51.452 51.452v613.053c-0.004 28.308-23.148 51.456-51.456 51.456zM427.193 244.752h-96.317v-95.114h-95.161v95.114h-96.449v95.739h96.449v95.779h95.161v-95.779h96.317v-95.739zM153.998 875.211h264.959v-111.894h-264.959zM544.606 736.746h103.701v77.269h188.446v-77.266h99.258c28.308 0 51.445-23.148 51.445-51.452v-613.053c0-28.308-23.137-51.452-51.445-51.452h-389.986v204.385h328.385v255.738h-328.385v129.299c0 28.308-23.14 51.452-51.452 51.452h-1.423v23.634c0.004 28.301 23.151 51.445 51.456 51.445v0zM605.629 960h264.951v-111.894h-264.951z" />
<glyph unicode="&#xe609;" glyph-name="medical12" d="M695.043-64c-119.925 12.802-213.113 112.802-212.142 233.085 0.96 118.642 93.956 216.612 212.142 229.217v-462.301zM746.959 398.312v-462.296c118.185 12.605 211.176 110.575 212.137 229.217 0.976 120.278-92.212 220.277-212.137 233.079zM345.17 762.426l-202.278-137.55c-39.336-26.747-65.896-67.21-74.8-113.934s0.929-94.123 27.676-133.454l9.22-13.56c33.195-48.816 88.298-77.961 147.409-77.961 35.744 0 70.314 10.663 99.984 30.833l202.283 137.55-209.494 308.076zM846.994 868.484l-9.22 13.56c-33.19 48.811-88.298 77.956-147.403 77.956-35.744 0-70.319-10.663-99.984-30.833l-202.283-137.55 209.484-308.071 202.283 137.55c81.196 55.207 102.336 166.186 47.124 247.387z" />
<glyph unicode="&#xe60a;" glyph-name="medicalkit1" d="M990.678 742.539c0 59.452-48.369 107.821-107.821 107.821s-107.821-48.369-107.821-107.821c0-50.837 35.411-93.464 82.835-104.783v-387.313c0-145.83-118.64-264.47-264.47-264.47-145.835 0-264.475 118.64-264.475 264.465l0.005 53.916c137.545 12.653 245.631 128.68 245.631 269.478v256.86c0 42.292-24.911 78.782-60.782 95.848-6.207 19.384-24.382 33.462-45.8 33.462-26.525 0-48.099-21.578-48.099-48.099s21.573-48.099 48.099-48.099c12.603 0 24.052 4.912 32.637 12.873 14.472-10.179 23.972-26.98 23.972-45.98v-256.86c0-121.668-98.986-220.649-220.649-220.649s-220.644 98.981-220.644 220.649v256.86c0 19.464 9.95 36.645 25.026 46.739 8.665-8.42 20.464-13.633 33.477-13.633 26.525 0 48.099 21.578 48.099 48.099s-21.578 48.099-48.099 48.099c-20.999 0-38.854-13.548-45.395-32.347-37.115-16.571-63.081-53.756-63.081-96.957v-256.86c0-140.793 108.086-256.765 245.631-269.423v-53.965c0-173.385 141.063-314.443 314.448-314.443 173.38 0 314.443 141.058 314.443 314.443v387.313c47.424 11.314 82.835 53.941 82.835 104.778z" />
<glyph unicode="&#xe60b;" glyph-name="patient1" d="M542.856 481.445c-114.174-24.963-171.235 28.204-174.203 31.046-14.418 14.386-37.749 14.513-52.304 0.221-14.66-14.376-14.881-37.928-0.505-52.578 2.852-2.905 60.050-59.681 168.583-59.681 22.563 0 47.347 2.431 74.32 8.345 20.059 4.388 32.75 24.226 28.362 44.264-4.378 20.069-24.205 32.75-44.253 28.383zM289.292 578.349c0-46.195-37.449-83.644-83.644-83.644s-83.644 37.449-83.644 83.644c0 46.195 37.449 83.644 83.644 83.644s83.644-37.449 83.644-83.644zM979.063 235.827l-156.649 63.27c-5.43 2.178-11.219 3.305-17.059 3.305h-39.917v8.672c0 4.441-1.147 8.566-3.062 12.26l147.672-40.296c3.904-1.063 7.83-1.579 11.692-1.579 19.469 0 37.307 12.944 42.685 32.645 6.441 23.595-7.461 47.958-31.056 54.377l-194.524 53.104c-3.862 1.052-7.661 1.568-11.892 1.558l-132.612-0.652c-6.178-14.597-19.069-26.099-35.687-29.741-21.879-4.788-44.148-7.219-66.217-7.219-107.649 0-180.991 57.555-184.053 60.007-10.545 8.409-17.196 20.427-18.701 33.834-1.526 13.418 2.273 26.626 10.703 37.192 9.64 12.103 24.058 19.038 39.538 19.038 11.303 0 22.427-3.862 31.319-10.882 1.494-1.158 30.277-23.142 76.046-33.161l-81.676 52.662c-28.793 18.585-64.406 5.757-85.307-14.018 0 0-6.988-5.967-11.892-13.955-4.694-7.64-8.356-17.165-8.356-17.165l-0.116-0.232c-9.461-27.383-6.42-64.985 22.479-83.634l155.165-100.062c1.842-1.189 3.725-2.263 5.599-3.21 0-0.284-0.084-0.579-0.084-0.863v-8.672h-44.127l-206.416 143.231c1.021 1.116 2 2.315 2.841 3.652 7.577 12.103 3.904 28.067-8.209 35.666l-70.268 44.011c-11.797 7.398-27.194 4.041-35.013-7.346-19.869 9.714-44.348 3.915-57.345-14.807-14.344-20.669-9.219-49.063 11.461-63.407l322.716-224.002c7.619-5.304 16.691-8.124 25.973-8.124h60.165c3.831-10.324 13.702-17.722 25.331-17.722h57.24v-213.867h-27.878c-12.060 0-21.827-9.787-21.827-21.848s9.777-21.837 21.827-21.837h211.878c12.060 0 21.837 9.777 21.837 21.837s-9.787 21.848-21.837 21.848h-30.362v213.867h57.229c11.639 0 21.5 7.388 25.342 17.722h32.824l148.44-59.955c5.578-2.263 11.355-3.326 17.028-3.326 18.059 0 35.108 10.777 42.275 28.509 9.44 23.342-1.821 49.883-25.163 59.313zM354.825 597.145c0-19.575 15.87-35.434 35.424-35.434 82.834 0 128.739 22.153 158.669 48.379v-57.419c-2.673-11.534-7.577-32.961-13.365-58.66 2.221 0.442 4.41 0.8 6.63 1.284 3.599 0.789 7.24 1.179 10.871 1.179 23.637 0 44.485-16.775 49.547-39.896 1.473-6.767 1.515-13.502 0.337-19.922l126.171 0.631c5.546 0 10.408-0.652 15.523-2.021l18.48-5.051c-10.503 51.294-22.448 101.788-27.383 122.214v68.248c13.555-28.215 22.016-68.637 21.153-130.602-0.274-19.553 15.365-35.645 34.918-35.918 0.189 0 0.337 0 0.516 0 19.332 0 35.15 15.533 35.392 34.929 2.368 168.425-86.17 258.847-163.121 277.453-0.084 0.021-0.168 0.021-0.221 0.042l-22.069-23.142-22.721 22.89c-12.65-3.105-59.587-23.995-89.054-69.847-25.363-34.298-47.263-63.901-140.305-63.901-19.522 0-35.392-15.87-35.392-35.434zM643.686 773.495c47.221 0 85.539 38.286 85.539 85.528 0 19.753-6.851 37.802-18.154 52.251h-27.657v12.976h15.197c-5.325 4.473-11.113 8.409-17.407 11.492-6.483 14.27-20.827 24.258-37.497 24.258-16.649 0-30.951-9.966-37.486-24.226-6.325-3.084-12.124-7.041-17.459-11.524h17.364v-12.976h-29.835c-11.24-14.449-18.122-32.498-18.122-52.251 0.021-47.242 38.286-85.528 85.518-85.528zM643.707 941.962c12.829 0 23.237-10.419 23.237-23.237s-10.419-23.237-23.237-23.237c-12.808 0-23.216 10.419-23.216 23.237s10.408 23.237 23.216 23.237zM402.741 718.202h-23.184v195.482h-301.5v-195.482h-21.069v-44.927h345.753v44.927zM354.341 888.469v-86.822l-82.392-0.074c-1.915 0-3.599-1.263-4.136-3.105l-12.071-40.991-12.071 40.991c-0.537 1.842-2.231 3.105-4.157 3.105h-16.344l-23.889 71.342c-1.179 3.526-7.030 3.526-8.209 0l-23.889-71.342h-63.901v86.896h251.059zM103.282 726.621v66.311h67.016c1.863 0 3.515 1.189 4.115 2.947l20.764 62.049 20.774-62.049c0.589-1.757 2.252-2.947 4.104-2.947h16.238l15.302-51.967c0.547-1.842 2.231-3.105 4.157-3.105s3.61 1.263 4.157 3.105l15.302 51.978 79.151 0.063v-66.374l-251.080-0.011z" />
<glyph unicode="&#xe60c;" glyph-name="iconmonstr-calendar-5-icon" d="M394.906 368.098h-117.81v117.808h117.81v-117.808zM572.904 485.906h-117.808v-117.808h117.808v117.808zM750.904 485.906h-117.81v-117.808h117.81v117.808zM394.906 313.906h-117.81v-117.812h117.81v117.812zM572.904 313.906h-117.808v-117.812h117.808v117.812zM750.902 313.906h-117.808v-117.812h117.808v117.812zM794.778 723.738c0-20.070-16.27-36.342-36.34-36.342s-36.342 16.272-36.342 36.342v91.458c0 20.068 16.272 36.34 36.342 36.34s36.34-16.272 36.34-36.34v-91.458zM303.778 815.36c0 20.070-16.272 36.342-36.34 36.342-20.072 0-36.342-16.272-36.342-36.342v-91.456c0-20.070 16.27-36.342 36.342-36.342 20.068 0 36.34 16.272 36.34 36.342v91.456zM838.704 762.298v-37.232c0-44.26-36.008-80.268-80.266-80.268-44.26 0-80.268 36.008-80.268 80.268v37.232h-330.466v-37.066c0-44.26-36.008-80.268-80.266-80.268-44.26 0-80.268 36.008-80.268 80.268v37.066h-87.17v-718h824v718h-85.296zM844 124.298h-664v444.942h664v-444.942z" />
<glyph unicode="&#xe60d;" glyph-name="iconmonstr-minus-2-icon" d="M100 540.942h824v-185.882h-824v185.882z" />
<glyph unicode="&#xe60e;" glyph-name="iconmonstr-plus-2-icon" d="M924 540.944h-319.058v319.056h-185.884v-319.056h-319.058v-185.884h319.058v-319.060h185.884v319.060h319.058z" />
<glyph unicode="&#xe60f;" glyph-name="iconmonstr-time-icon" d="M734 369h-279v307h90v-217h189v-90zM512 770c-177.984 0-322-144.044-322-322 0-177.984 144.046-322 322-322 177.984 0 322 144.046 322 322 0 177.986-144.046 322-322 322zM512 860c227.542 0 412-184.458 412-412s-184.458-412-412-412-412 184.458-412 412 184.458 412 412 412z" />
<glyph unicode="&#xe610;" glyph-name="iconmonstr-clipboard-7-icon" d="M865.632 740.418v-704.418h-707.264v704.418h159.776l-80.634-79.808v-543.464h546.98v543.464l-79.458 79.808h160.6zM345.68 231.726h336.648v60.106h-336.648v-60.106zM345.68 342.758h336.582v60.11h-336.582v-60.11zM682.262 513.73h-336.582v-60.11h336.582v60.11zM616.464 742.196v14.094c0 57.278-46.432 103.71-103.71 103.71s-103.708-46.434-103.708-103.71v-14.094l-113.224-114.172h434.36l-113.718 114.172zM513.506 723.668c-19.684 0-35.64 15.958-35.64 35.644 0 19.684 15.958 35.64 35.64 35.64 19.69 0 35.646-15.958 35.646-35.64 0-19.688-15.956-35.644-35.646-35.644z" />
<glyph unicode="&#xe611;" glyph-name="iconmonstr-equalizer-3-icon" d="M482.182 748v-58.504h-161.912v58.504h161.912zM320.27 645.616v-587.616h161.912v587.616h-161.912zM261.766 458.192h-161.766v-58.504h161.766v58.504zM540.688 477.494h161.912v58.506h-161.912v-58.506zM540.688 433.618v-375.618h161.912v375.618h-161.912zM100 355.808v-297.808h161.766v297.808h-161.766zM762.088 233.494h161.912v58.506h-161.912v-58.506zM762.088 189.618v-131.618h161.912v131.618h-161.912z" />
<glyph unicode="&#xe612;" glyph-name="iconmonstr-filter-3-icon" d="M894.178 762.468c38.49 82.792-273.124 97.532-380.308 97.532-102.314 0-418.798-14.74-380.31-97.532 17.716-38.11 311.364-443.458 311.364-443.458v-180.102l140.528-102.908v283.012c0 0 291.008 405.348 308.726 443.456zM513.87 809.344c164.422 0 315.54-21.926 315.54-46.778s-151.118-44.994-315.54-44.994-311.576 20.142-311.576 44.994 147.154 46.778 311.576 46.778z" />
<glyph unicode="&#xe613;" glyph-name="iconmonstr-sound-wave-2-icon" d="M452.992 232.15l-59.2 235.584-41.556-128.644c-5.616-17.384-29.818-18.73-37.29-2.016l-39.954 89.364-25.7-35.754c-3.758-5.228-9.802-8.328-16.24-8.328h-133.052v40h122.798l40.016 55.672c8.962 12.478 28.192 10.596 34.498-3.508l32.88-73.542 46.972 145.41c6.138 19 33.534 18.21 38.428-1.274l52.602-209.334 53.122 326.456c3.5 21.526 34.394 22.678 39.25 1.192l61.634-273.038 42.23 107.92c6.506 16.628 29.942 17.054 37.004 0.6l50.838-118.446 24.636 33.698c3.766 5.15 9.764 8.196 16.144 8.196h130.948v-40h-120.792l-39.34-53.804c-9.15-12.514-28.43-10.276-34.524 3.916l-45.434 105.856-48.23-123.256c-7.184-18.346-33.812-16.26-38.134 2.884l-53.3 236.126-52.116-320.268c-3.478-21.368-33.834-22.778-39.138-1.662z" />
<glyph unicode="&#xe614;" glyph-name="camera" d="M371.28 605.31c0 74.912-60.73 135.64-135.638 135.64-74.914 0-135.64-60.728-135.64-135.64 0-74.91 60.726-135.636 135.64-135.636 74.906 0 135.638 60.726 135.638 135.636zM568.94 408.886c22.884 0 44.862 3.948 65.302 11.174v-189.18c0-41.88-33.952-75.832-75.832-75.832h-314.27c-41.88 0-75.832 33.952-75.832 75.832v189.896c21.010-7.692 43.69-11.89 67.332-11.89 70.204 0 131.91 37.028 166.648 92.57 34.742-55.542 96.448-92.57 166.652-92.57zM568.94 740.952c-74.908 0-135.636-60.728-135.636-135.64 0-74.91 60.728-135.636 135.636-135.636 74.916 0 135.64 60.726 135.64 135.636s-60.724 135.64-135.64 135.64zM924 513.702v-358.652l-228.97 116.51v123.604l228.97 118.538z" />
<glyph unicode="&#xe615;" glyph-name="gear" d="M924 392.516v110.97l-59.962 21.324c-22.862 8.13-41.256 25.588-50.548 48.002-0.004 0.008-0.008 0.018-0.012 0.026-9.318 22.47-8.666 47.836 1.778 69.806l27.306 57.448-78.468 78.468-57.44-27.304c-21.958-10.438-47.36-11.092-69.816-1.778-0.010 0.004-0.020 0.006-0.028 0.010-22.43 9.3-39.866 27.668-48 50.546l-21.328 59.966h-110.968l-21.324-59.962c-8.13-22.862-25.588-41.254-48.002-50.548-0.010-0.004-0.018-0.008-0.028-0.010-22.47-9.32-47.838-8.666-69.81 1.778l-57.446 27.306-78.468-78.468 27.306-57.442c10.438-21.958 11.090-47.362 1.778-69.82-0.004-0.008-0.008-0.018-0.012-0.026-9.298-22.428-27.668-39.862-50.542-47.996l-59.966-21.326v-110.97l59.96-21.322c22.862-8.13 41.254-25.588 50.548-48 0.004-0.010 0.006-0.020 0.010-0.028 9.32-22.472 8.668-47.842-1.776-69.812l-27.308-57.446 78.468-78.468 57.442 27.304c21.958 10.438 47.362 11.092 69.818 1.778 0.010-0.004 0.020-0.008 0.028-0.012 22.428-9.298 39.86-27.666 47.996-50.542l21.328-59.968h110.968l21.19 59.58c8.206 23.076 25.816 41.648 48.432 51.050 0.010 0.004 0.018 0.008 0.028 0.012 22.254 9.256 47.388 8.622 69.156-1.726l57.804-27.476 78.468 78.468-27.32 57.474c-10.428 21.938-11.078 47.318-1.772 69.754 0.004 0.010 0.008 0.018 0.012 0.028 9.308 22.45 27.696 39.898 50.594 48.042l59.926 21.31zM512 296.908c-83.448 0-151.096 67.646-151.096 151.092s67.648 151.094 151.096 151.094c83.446 0 151.092-67.648 151.092-151.094s-67.646-151.092-151.092-151.092z" />
<glyph unicode="&#xe616;" glyph-name="iconmonstr-arrow-33-icon" d="M868.802 448l-713.604-412 263.742 412-263.742 412z" />
<glyph unicode="&#xe617;" glyph-name="iconmonstr-phone-3-icon" d="M533.42 637.89l-68.376-34.334-111.532 222.11 68.376 34.334 111.532-222.11zM686.118 333.802l-68.376-34.334 111.53-222.116 68.378 34.338-111.532 222.112zM425.372 579.606l-113.24 225.504c-45.882-24.514-175.532-81.408 15.12-461.080 191.522-381.406 310.138-310.812 360.688-287.324l-113.144 225.328c-72.672-35.962-220.698 258.958-149.424 297.572z" />
<glyph unicode="&#xe618;" glyph-name="location" d="M735.976 636.024c0 123.696-100.274 223.976-223.976 223.976-123.698 0-223.976-100.28-223.976-223.976s98.024-267.456 223.976-483.136c125.956 215.68 223.976 359.438 223.976 483.136zM431.676 641.458c0 44.362 35.962 80.322 80.324 80.322s80.324-35.96 80.324-80.322c0-44.36-35.962-80.32-80.324-80.32s-80.324 35.962-80.324 80.32zM788.876 304.888h-117.57c-11.206-19.374-22.96-39.34-35.202-60h115.774l26.692-53.114h-173.994c-5.85-9.86-11.774-19.858-17.762-30h74.882l27.218-65.774h-332.2l28.584 65.776h51.888c-5.988 10.142-11.912 20.14-17.764 30h-107.272l-21.568 53.114h97.31c-12.238 20.66-23.992 40.626-35.2 60h-117.57l-135.122-268.89h824l-135.124 268.888zM324.004 96h-126.702l67.124 133.57 27.532-67.794h60.628l-28.582-65.776zM694.16 161.776h99.482l33.056-65.776h-105.318l-27.22 65.776z" />
<glyph unicode="&#xe619;" glyph-name="navigation" d="M333.918 543.494l309.458 113.62-115-310.84-37.792 158.046-156.666 39.174zM849 523c0-189-163.86-313.666-337-487-173.14 173.334-337 298-337 487 0 186.122 150.878 337 337 337s337-150.878 337-337zM759.25 533.332c0 136.552-110.698 247.25-247.25 247.25-136.55 0-247.248-110.698-247.248-247.25 0-136.55 110.698-247.248 247.248-247.248 136.552 0 247.25 110.698 247.25 247.248z" />
<glyph unicode="&#xe61b;" glyph-name="table" d="M572.11 271.428h351.89v117.714h-351.89v-117.714zM572.11 860v-117.714h351.89v117.714h-351.89zM572.11 36h351.89v117.714h-351.89v-117.714zM572.11 506.858h351.89v117.714h-351.89v-117.714zM453.142 506.858h-353.142v353.142h353.142v-353.142zM453.142 36h-353.142v353.142h353.142v-353.142z" />
</font>
</defs>
</svg>
